<svg xmlns="http://www.w3.org/2000/svg" xmlns:xlink="http://www.w3.org/1999/xlink" fill="none" viewBox="0 0 1416 816">
  <defs/>
  <g filter="url(#filter0_d)">
    <rect width="1296" height="696" x="60" y="60" fill="#fff" fill-opacity=".01" rx="8"/>
  </g>
  <rect width="1280" height="720" x="68" y="28" fill="#DEE1E6" rx="8"/>
  <path fill="#fff" d="M68 108h1280v632a8 8 0 01-8 8H76a8 8 0 01-8-8V108z"/>
  <path fill="#5F6368" d="M410 48h-2v5h-5v2h5v5h2v-5h5v-2h-5v-5z"/>
  <path fill="#fff" d="M68 71h71a8 8 0 008-8V45a8 8 0 018-8h224a8 8 0 018 8v18a8 8 0 008 8h953v36H68V71z"/>
  <path fill="#5F6368" d="M1328 84.5a1.499 1.499 0 11-3 0 1.499 1.499 0 113 0zM1328 89.5a1.499 1.499 0 11-3 0 1.499 1.499 0 113 0zM1326.5 96a1.499 1.499 0 100-3 1.499 1.499 0 100 3z"/>
  <circle cx="1293" cy="89" r="10" fill="#DEE1E6"/>
  <rect width="1093" height="28" x="178" y="75" fill="#F1F3F4" rx="14"/>
  <path fill="#5F6368" fill-rule="evenodd" d="M1251.5 82l2.07 5.141h5.43l-4.08 3.802 1.35 5.057-4.77-2.54-4.77 2.54 1.35-5.057-4.08-3.802h5.43L1251.5 82zm0 3.872l-1.06 2.629h-2.91l2.17 2.025-.73 2.713 2.53-1.345 2.53 1.345-.73-2.713 2.17-2.025h-2.91l-1.06-2.629z" clip-rule="evenodd"/>
  <path fill="#787B80" d="M212.938 94h1.274v-4.541c0-1.384.82-2.293 2.153-2.293 1.253 0 1.89.762 1.89 2.022V94h1.274v-5.04c0-1.757-1.054-2.929-2.783-2.929-1.208 0-2.014.462-2.505 1.355h-.029V82.97h-1.274V94zM221.646 84.325v1.78h-1.099v1.054h1.099v4.79c0 1.516.557 2.11 1.985 2.11.3 0 .666-.03.82-.066v-1.077a5.257 5.257 0 01-.549.037c-.674 0-.982-.33-.982-1.055v-4.739h1.538v-1.055h-1.538v-1.78h-1.274zM226.29 84.325v1.78h-1.099v1.054h1.099v4.79c0 1.516.556 2.11 1.984 2.11.301 0 .667-.03.821-.066v-1.077a5.279 5.279 0 01-.55.037c-.673 0-.981-.33-.981-1.055v-4.739h1.538v-1.055h-1.538v-1.78h-1.274zM234.31 86.031c-1.092 0-2.095.535-2.557 1.355h-.029v-1.281h-1.208v10.532h1.274v-3.919h.029c.498.864 1.399 1.355 2.52 1.355 1.992 0 3.354-1.611 3.354-4.02 0-2.41-1.369-4.022-3.383-4.022zm-.235 6.907c-1.362 0-2.292-1.165-2.292-2.886 0-1.714.93-2.886 2.292-2.886 1.392 0 2.315 1.143 2.315 2.886 0 1.75-.923 2.886-2.315 2.886zM238.909 88.31c0 1.054.674 1.75 2.058 2.108l1.385.36c.9.234 1.23.527 1.23 1.083 0 .71-.674 1.158-1.75 1.158-1.077 0-1.729-.433-1.861-1.238h-1.282c.125 1.37 1.355 2.292 3.055 2.292 1.823 0 3.12-.952 3.12-2.3 0-1.15-.572-1.706-2.168-2.109l-1.201-.3c-.909-.227-1.333-.586-1.333-1.12 0-.69.651-1.15 1.626-1.15.966 0 1.611.46 1.691 1.2h1.224c-.052-1.296-1.267-2.255-2.871-2.255-1.714 0-2.923.937-2.923 2.27zM247.288 94.073a.821.821 0 00.835-.835.817.817 0 00-.835-.835.82.82 0 00-.835.835c0 .469.366.835.835.835zm0-5.39a.821.821 0 00.835-.835.817.817 0 00-.835-.835.82.82 0 00-.835.835c0 .468.366.835.835.835zM250.262 96.41l3.252-12.986h-1.092l-3.23 12.986h1.07zM254.583 96.41l3.252-12.986h-1.091l-3.23 12.986h1.069z"/>
  <path fill="#202124" d="M261.893 92.865c-1.377 0-2.278-1.12-2.278-2.842 0-1.729.901-2.856 2.278-2.856 1.384 0 2.321 1.157 2.321 2.856 0 1.692-.937 2.842-2.321 2.842zm.022 3.955c2.219 0 3.574-1.15 3.574-3.04v-7.675h-1.216v1.281h-.022c-.527-.864-1.458-1.355-2.571-1.355-2.029 0-3.369 1.582-3.369 3.992 0 2.388 1.34 3.977 3.34 3.977 1.106 0 2.036-.498 2.534-1.355h.029v1.238c0 1.12-.864 1.83-2.226 1.83-1.04 0-1.824-.41-2.014-1.069h-1.326c.183 1.312 1.479 2.176 3.267 2.176zM270.477 94.073c2.219 0 3.64-1.574 3.64-4.02 0-2.454-1.421-4.022-3.64-4.022-2.22 0-3.641 1.568-3.641 4.021 0 2.447 1.421 4.021 3.641 4.021zm0-1.135c-1.465 0-2.344-1.077-2.344-2.886 0-1.809.871-2.886 2.344-2.886 1.472 0 2.343 1.07 2.343 2.886 0 1.81-.871 2.886-2.343 2.886zM278.709 94.073c2.219 0 3.64-1.574 3.64-4.02 0-2.454-1.421-4.022-3.64-4.022-2.219 0-3.64 1.568-3.64 4.021 0 2.447 1.421 4.021 3.64 4.021zm0-1.135c-1.465 0-2.344-1.077-2.344-2.886 0-1.809.872-2.886 2.344-2.886s2.344 1.07 2.344 2.886c0 1.81-.872 2.886-2.344 2.886zM286.883 92.865c-1.377 0-2.278-1.12-2.278-2.842 0-1.729.901-2.856 2.278-2.856 1.384 0 2.322 1.157 2.322 2.856 0 1.692-.938 2.842-2.322 2.842zm.022 3.955c2.219 0 3.574-1.15 3.574-3.04v-7.675h-1.216v1.281h-.022c-.527-.864-1.457-1.355-2.571-1.355-2.028 0-3.369 1.582-3.369 3.992 0 2.388 1.341 3.977 3.34 3.977 1.106 0 2.036-.498 2.534-1.355h.03v1.238c0 1.12-.865 1.83-2.227 1.83-1.04 0-1.824-.41-2.014-1.069h-1.326c.183 1.312 1.48 2.176 3.267 2.176zM292.288 94h1.274V82.97h-1.274V94zM298.514 87.152c1.245 0 2.094.893 2.124 2.234h-4.344c.088-1.333.982-2.234 2.22-2.234zm2.094 4.592c-.227.74-.996 1.209-1.984 1.209-1.407 0-2.33-.975-2.33-2.476v-.073h5.669v-.498c0-2.388-1.318-3.875-3.427-3.875-2.154 0-3.56 1.604-3.56 4.05 0 2.447 1.399 3.992 3.618 3.992 1.685 0 3.054-.974 3.274-2.329h-1.26zM304.344 94.073a.821.821 0 00.835-.835.817.817 0 00-.835-.835.82.82 0 00-.835.835c0 .469.366.835.835.835zM313.199 88.675c-.161-1.384-1.355-2.644-3.311-2.644-2.16 0-3.603 1.597-3.603 4.021 0 2.483 1.45 4.021 3.618 4.021 1.802 0 3.098-1.062 3.31-2.6h-1.252c-.22.952-.952 1.465-2.051 1.465-1.377 0-2.329-1.091-2.329-2.886 0-1.743.938-2.886 2.315-2.886 1.186 0 1.889.667 2.05 1.51h1.253zM317.688 94.073c2.22 0 3.641-1.574 3.641-4.02 0-2.454-1.421-4.022-3.641-4.022-2.219 0-3.64 1.568-3.64 4.021 0 2.447 1.421 4.021 3.64 4.021zm0-1.135c-1.464 0-2.343-1.077-2.343-2.886 0-1.809.871-2.886 2.343-2.886 1.473 0 2.344 1.07 2.344 2.886 0 1.81-.871 2.886-2.344 2.886zM322.669 94h1.274v-4.9c0-1.106.777-1.933 1.831-1.933.989 0 1.641.63 1.641 1.582V94h1.274v-4.966c0-1.084.755-1.868 1.81-1.868 1.054 0 1.662.645 1.662 1.736V94h1.275v-5.39c0-1.568-1.011-2.579-2.571-2.579-1.106 0-2.036.557-2.483 1.494h-.029c-.345-.952-1.143-1.494-2.212-1.494-1.026 0-1.868.513-2.242 1.355h-.029v-1.281h-1.201V94z"/>
  <path fill="#5F6368" fill-rule="evenodd" d="M199 87a1 1 0 011 1v5a1 1 0 01-1 1h-6a1 1 0 01-1-1v-5a1 1 0 011-1v-1a3 3 0 116 0v1zm-5 0h4v-1a2 2 0 10-4 0v1z" clip-rule="evenodd"/>
  <path fill="#5F6368" d="M155 94a5.002 5.002 0 004.9-4h2.029A7.002 7.002 0 01148 89a7 7 0 0111.95-4.95L162 82v6h-6l2.536-2.535A5 5 0 10155 94z"/>
  <path fill="#BABCBE" d="M123.333 82L122 83.4l4.381 4.6H116v2h10.381L122 94.6l1.333 1.4L130 89l-6.667-7z"/>
  <path fill="#5F6368" d="M90.667 82L92 83.4 87.619 88H98v2H87.619L92 94.6 90.667 96 84 89l6.667-7z"/>
  <path fill="#5F6368" fill-opacity=".8" d="M368.333 50L367 51.333 369.667 54 367 56.667 368.333 58 371 55.333 373.667 58 375 56.667 372.333 54 375 51.333 373.667 50 371 52.667 368.333 50z"/>
  <path fill="#202124" d="M191.614 54.21v-.87h-3.726v1.004h2.583v.165c0 1.536-1.117 2.59-2.742 2.59-1.866 0-3.021-1.429-3.021-3.733 0-2.266 1.136-3.624 3.021-3.624 1.289 0 2.247.704 2.628 1.942h1.2c-.343-1.822-1.848-2.996-3.828-2.996-2.564 0-4.196 1.822-4.196 4.685 0 2.913 1.638 4.78 4.196 4.78 2.444 0 3.885-1.467 3.885-3.943zM195.759 58.063c1.923 0 3.155-1.364 3.155-3.484 0-2.127-1.232-3.485-3.155-3.485-1.924 0-3.155 1.358-3.155 3.485 0 2.12 1.231 3.484 3.155 3.484zm0-.983c-1.27 0-2.031-.933-2.031-2.501 0-1.568.755-2.501 2.031-2.501 1.276 0 2.031.926 2.031 2.5 0 1.569-.755 2.502-2.031 2.502zM202.894 58.063c1.923 0 3.154-1.364 3.154-3.484 0-2.127-1.231-3.485-3.154-3.485-1.924 0-3.155 1.358-3.155 3.485 0 2.12 1.231 3.484 3.155 3.484zm0-.983c-1.27 0-2.032-.933-2.032-2.501 0-1.568.756-2.501 2.032-2.501 1.275 0 2.031.926 2.031 2.5 0 1.569-.756 2.502-2.031 2.502zM209.978 57.016c-1.194 0-1.975-.971-1.975-2.463 0-1.498.781-2.475 1.975-2.475 1.199 0 2.012 1.003 2.012 2.475 0 1.467-.813 2.463-2.012 2.463zm.019 3.428c1.923 0 3.097-.997 3.097-2.634v-6.653h-1.053v1.111h-.02c-.457-.749-1.263-1.174-2.228-1.174-1.758 0-2.919 1.37-2.919 3.46 0 2.069 1.161 3.446 2.894 3.446.959 0 1.765-.432 2.196-1.174h.026v1.072c0 .972-.749 1.587-1.93 1.587-.901 0-1.581-.355-1.746-.926h-1.148c.158 1.136 1.282 1.885 2.831 1.885zM214.662 58h1.105v-9.56h-1.105V58zM220.058 52.065c1.079 0 1.815.774 1.84 1.936h-3.764c.076-1.155.851-1.936 1.924-1.936zm1.815 3.98c-.197.641-.863 1.047-1.72 1.047-1.219 0-2.019-.844-2.019-2.145v-.064h4.913v-.431c0-2.07-1.142-3.358-2.97-3.358-1.867 0-3.085 1.39-3.085 3.51s1.212 3.46 3.135 3.46c1.46 0 2.647-.845 2.838-2.02h-1.092z"/>
  <path fill="url(#pattern0)" d="M159 46h16v16h-16z"/>
  <circle cx="88" cy="50" r="6" fill="#FF5F57"/>
  <circle cx="108" cy="50" r="6" fill="#FFBD2E"/>
  <circle cx="128" cy="50" r="6" fill="#27C940"/>
  <rect width="1279" height="719" x="68.5" y="28.5" stroke="#DEE1E6" rx="7.5"/>
  <defs>
    <pattern id="pattern0" width="1" height="1" patternContentUnits="objectBoundingBox">
      <use transform="scale(.0625)" xlink:href="#image0"/>
    </pattern>
    <filter id="filter0_d" width="1416" height="816" x="0" y="0" color-interpolation-filters="sRGB" filterUnits="userSpaceOnUse">
      <feFlood flood-opacity="0" result="BackgroundImageFix"/>
      <feColorMatrix in="SourceAlpha" values="0 0 0 0 0 0 0 0 0 0 0 0 0 0 0 0 0 0 127 0"/>
      <feOffset/>
      <feGaussianBlur stdDeviation="30"/>
      <feColorMatrix values="0 0 0 0 0 0 0 0 0 0 0 0 0 0 0 0 0 0 0.16 0"/>
      <feBlend in2="BackgroundImageFix" result="effect1_dropShadow"/>
      <feBlend in="SourceGraphic" in2="effect1_dropShadow" result="shape"/>
    </filter>
  </defs>
</svg>
