<svg xmlns="http://www.w3.org/2000/svg" fill="none" viewBox="0 0 1282 760">
  <defs/>
  <path fill="#2F3235" d="M1 39h1280v712c0 2.8 0 4.2-.54 5.27a5.015 5.015 0 01-2.19 2.185c-1.07.545-2.47.545-5.27.545H9c-2.8 0-4.2 0-5.27-.545a4.997 4.997 0 01-2.185-2.185C1 755.2 1 753.8 1 751V39z"/>
  <path fill="url(#paint0_linear)" d="M2 7.4c0-2.24 0-3.36.436-4.216a4 4 0 011.748-1.748C5.04 1 6.16 1 8.4 1h1266.2c2.24 0 3.36 0 4.22.436.75.383 1.36.995 1.74 1.748.44.856.44 1.976.44 4.216V38H2V7.4z"/>
  <path fill="#000" d="M2 38h1278v1H2z" opacity=".95"/>
  <path fill="url(#paint1_linear)" d="M1256 13h24v25h-24z" opacity=".9"/>
  <path fill="#56585A" d="M1256 13v25h1V14h23v-1h-24z"/>
  <path fill="#929393" d="M1268 21h1v11h-1z"/>
  <path fill="#929393" d="M1263 27v-1h11v1z"/>
  <g filter="url(#filter0_i)">
    <rect width="37" height="22" x="1211" y="9" fill="url(#paint2_linear)" rx="3"/>
  </g>
  <rect width="8" height="8" x="1224.5" y="17.5" stroke="#E9E9EA" rx=".5"/>
  <mask id="a" fill="#fff">
    <path d="M1227 15.6v.4h1v-1h7v7h-1v1h.4c.56 0 .84 0 1.05-.109a.968.968 0 00.44-.437c.11-.214.11-.494.11-1.054v-5.8c0-.56 0-.84-.11-1.054a.968.968 0 00-.44-.437c-.21-.109-.49-.109-1.05-.109h-5.8c-.56 0-.84 0-1.05.109a.968.968 0 00-.44.437c-.11.214-.11.494-.11 1.054z"/>
  </mask>
  <path fill="#E9E9EA" d="M1227 16h-1v1h1v-1zm7 7h-1v1h1v-1zm0-1v-1h-1v1h1zm1 0v1h1v-1h-1zm0-7h1v-1h-1v1zm-7 0v-1h-1v1h1zm0 1v1h1v-1h-1zm7.89 6.454L1235 22l.89.454zm-.44.437L1235 22l.45.891zm0-8.782l.46-.891-.46.891zm.44.437L1235 15l.89-.454zm-8.78 0l-.89-.454.89.454zm.44-.437l-.46-.891.46.891zM1228 16v-.4h-2v.4h2zm.6-1h5.8v-2h-5.8v2zm6.4.6v5.8h2v-5.8h-2zm-.6 6.4h-.4v2h.4v-2zm.6 1v-1h-2v1h2zm-1 0h1v-2h-1v2zm2-1v-7h-2v7h2zm-1-8h-7v2h7v-2zm-8 1v1h2v-1h-2zm1 0h-1v2h1v-2zm7 6.4c0 .297 0 .459-.01.575-.01.105-.02.082.01.025l1.78.908c.14-.271.18-.541.2-.77.02-.217.02-.475.02-.738h-2zm-.6 2.6c.26 0 .52 0 .74-.017.23-.019.5-.063.77-.201L1235 22c.06-.03.08-.019-.02-.01-.12.01-.28.01-.58.01v2zm.6-2l.91 1.782c.37-.192.68-.498.87-.874L1235 22zm-.6-7c.3 0 .46 0 .58.01.1.009.08.02.02-.01l.91-1.782a2.01 2.01 0 00-.77-.201c-.22-.018-.48-.017-.74-.017v2zm2.6.6c0-.264 0-.521-.02-.738a2.012 2.012 0 00-.2-.77L1235 15c-.03-.057-.02-.08-.01.025.01.116.01.278.01.575h2zm-2-.6l1.78-.908c-.19-.376-.5-.682-.87-.874L1235 15zm-7 .6c0-.296 0-.459.01-.575.01-.105.02-.082-.01-.025l-1.78-.908c-.14.271-.18.541-.2.77-.02.217-.02.474-.02.738h2zm.6-2.6c-.26 0-.52 0-.74.017-.23.019-.5.063-.77.201L1228 15c-.06.03-.08.019.02.01.12-.01.28-.01.58-.01v-2zm-.6 2l-.91-1.782c-.37.192-.68.498-.87.874L1228 15z" mask="url(#a)"/>
  <g filter="url(#filter1_i)">
    <rect width="37" height="22" x="1166" y="9" fill="url(#paint3_linear)" rx="3"/>
  </g>
  <path fill="#8B8D8F" d="M1180 26h9v-8.002l-3 .002v-1h2.99c.57 0 1.01.446 1.01.995v8.01c0 .54-.45.995-1 .995h-9c-.56 0-1-.446-1-.995v-8.01c0-.54.45-.995 1.01-.995h2.99v1h-2.99l-.01 8zM1184.49 13.343l-2.54 2.572a.473.473 0 01-.67 0 .485.485 0 010-.672l2.87-2.907a.473.473 0 01.67 0l2.87 2.907c.18.186.18.486 0 .672a.461.461 0 01-.66 0l-2.54-2.572z"/>
  <path fill="#8B8D8F" d="M1184 13h1v9h-1v-9z"/>
  <g filter="url(#filter2_i)">
    <rect width="590" height="22" x="347" y="9" fill="url(#paint4_linear)" rx="4"/>
  </g>
  <path fill="#E9E9EA" d="M520.11 22.727c.054.402.265.72.633.955.363.238.828.357 1.394.357.527 0 .965-.123 1.313-.37.343-.241.515-.55.515-.925a.973.973 0 00-.386-.79c-.254-.204-.663-.372-1.225-.505l-1.09-.264c-.766-.18-1.328-.458-1.687-.837-.36-.38-.54-.88-.54-1.5 0-.754.282-1.36.844-1.817.567-.46 1.311-.691 2.233-.691.859 0 1.572.226 2.138.68.567.453.869 1.035.909 1.746h-1.278c-.062-.391-.252-.7-.568-.926-.32-.227-.727-.34-1.219-.34-.519 0-.937.115-1.254.346-.316.23-.474.535-.474.914 0 .3.121.545.363.732.238.188.633.346 1.183.475l.932.228c.867.203 1.492.49 1.875.862.383.375.574.88.574 1.517 0 .809-.293 1.45-.879 1.922-.586.473-1.379.71-2.379.71-.937 0-1.697-.226-2.279-.675-.586-.449-.902-1.05-.949-1.804h1.301zm8.618 1.318c.473 0 .867-.133 1.184-.399.312-.265.468-.597.468-.996v-.533l-1.558.1c-.852.058-1.277.365-1.277.92 0 .281.111.504.334.668.214.16.498.24.849.24zm-.322 1.06c-.625 0-1.133-.171-1.524-.515-.402-.356-.603-.82-.603-1.395 0-.57.205-1.02.615-1.347.41-.325.996-.51 1.758-.557l1.728-.1v-.55c0-.703-.435-1.055-1.306-1.055-.738 0-1.182.236-1.33.709h-1.219c.062-.547.332-.985.809-1.313.472-.324 1.072-.486 1.798-.486.797 0 1.414.19 1.852.569.434.374.65.9.65 1.576V25h-1.213v-.896h-.099c-.399.668-1.037 1.002-1.916 1.002zm5.267-5.396h-1.049v-1.06h1.049v-.633c0-.641.168-1.108.504-1.4.32-.286.818-.428 1.494-.428.234 0 .47.019.709.058v1.008a3.295 3.295 0 00-.563-.047c-.597 0-.896.293-.896.879v.562h1.412v1.061h-1.401V25h-1.259v-5.291zm5.8 4.336c.472 0 .867-.133 1.183-.399.313-.265.469-.597.469-.996v-.533l-1.559.1c-.851.058-1.277.365-1.277.92 0 .281.111.504.334.668.215.16.498.24.85.24zm-.323 1.06c-.625 0-1.132-.171-1.523-.515-.402-.356-.604-.82-.604-1.395 0-.57.206-1.02.616-1.347.41-.325.996-.51 1.757-.557l1.729-.1v-.55c0-.703-.436-1.055-1.307-1.055-.738 0-1.181.236-1.33.709h-1.218c.062-.547.332-.985.808-1.313.473-.324 1.072-.486 1.799-.486.797 0 1.414.19 1.852.569.433.374.65.9.65 1.576V25h-1.213v-.896h-.1c-.398.668-1.037 1.002-1.916 1.002zm4.822-6.486h1.213v.979h.094c.089-.317.294-.576.615-.78a2.01 2.01 0 011.101-.304c.239 0 .424.017.557.052v1.243c-.145-.051-.377-.077-.697-.077-.477 0-.866.14-1.166.416-.305.278-.457.64-.457 1.084V25h-1.26v-6.38zm4.651 0h1.254V25h-1.254v-6.38zm.627-1.119a.798.798 0 01-.58-.223.711.711 0 01-.234-.545.73.73 0 01.234-.55.799.799 0 01.58-.223c.235 0 .43.074.586.223a.737.737 0 01.229.55c0 .22-.076.4-.229.545a.816.816 0 01-.586.223zm5.507 7.5v-8.455h1.535l2.689 6.422h.1l2.695-6.422h1.535V25h-1.218v-6.105h-.082l-2.479 5.859h-.996l-2.479-5.86h-.082V25h-1.218zm13.024-.996c.543 0 .965-.194 1.266-.58.297-.383.445-.922.445-1.617 0-.692-.148-1.23-.445-1.617-.301-.383-.723-.575-1.266-.575-.547 0-.969.192-1.265.575-.297.382-.446.921-.446 1.617 0 .699.149 1.24.446 1.623.296.383.718.574 1.265.574zm0 1.119c-.937 0-1.674-.295-2.209-.885-.535-.59-.802-1.4-.802-2.431 0-1.028.269-1.836.808-2.426.535-.59 1.27-.885 2.203-.885.93 0 1.662.295 2.198.885.539.59.808 1.398.808 2.426 0 1.03-.267 1.841-.803 2.431-.535.59-1.269.885-2.203.885zm8.501-4.418a1.335 1.335 0 00-.492-.773c-.269-.207-.607-.31-1.013-.31-.528 0-.942.19-1.243.573-.304.383-.457.914-.457 1.594 0 .688.153 1.229.457 1.623.301.39.715.586 1.243.586.835 0 1.337-.35 1.505-1.049h1.225c-.082.656-.359 1.18-.832 1.57-.488.403-1.119.604-1.893.604-.929 0-1.66-.295-2.191-.885-.535-.593-.803-1.41-.803-2.449 0-1.023.266-1.828.797-2.414.531-.586 1.262-.879 2.192-.879.777 0 1.412.21 1.904.627.465.395.74.922.826 1.582h-1.225zm6.416-2.086h1.488l-2.625 2.736L584.362 25h-1.547l-2.192-2.813-.556.528V25h-1.26v-8.871h1.26v5.15h.099l2.532-2.66zM590.824 25h-1.207v-1.014h-.1c-.324.758-.99 1.137-1.998 1.137-.711 0-1.264-.207-1.658-.621-.399-.414-.598-.998-.598-1.752v-4.13h1.26v3.814c0 1.015.469 1.523 1.406 1.523.508 0 .908-.143 1.201-.428.293-.285.44-.677.44-1.177v-3.733h1.254V25zm4.944-6.486c.813 0 1.457.295 1.934.884.477.594.715 1.397.715 2.409 0 1.011-.238 1.814-.715 2.408-.473.594-1.113.89-1.922.89-.953 0-1.607-.357-1.963-1.072h-.099v3.035h-1.26V18.62h1.213v1.055h.093a2.11 2.11 0 01.821-.856 2.34 2.34 0 011.183-.304zm-.357 5.46c.535 0 .955-.19 1.26-.574.3-.386.451-.918.451-1.593 0-.676-.151-1.205-.451-1.588-.305-.383-.723-.575-1.254-.575s-.951.194-1.26.58c-.309.391-.463.92-.463 1.588 0 .665.154 1.192.463 1.582.309.387.727.58 1.254.58zm6.496-1.763v-1.236h12v1.236h-12zm18.989-5.666c1.254 0 2.231.367 2.93 1.101.699.739 1.049 1.772 1.049 3.1 0 1.352-.348 2.399-1.043 3.14-.696.743-1.674 1.114-2.936 1.114h-3.053v-8.455h3.053zm-1.74 7.26h1.594c.886 0 1.572-.264 2.056-.791.489-.532.733-1.282.733-2.25 0-.953-.246-1.696-.739-2.227-.488-.531-1.171-.797-2.05-.797h-1.594v6.065zm9.204.24c.473 0 .867-.133 1.184-.399.312-.265.468-.597.468-.996v-.533l-1.558.1c-.852.058-1.277.365-1.277.92 0 .281.111.504.334.668.214.16.498.24.849.24zm-.322 1.06c-.625 0-1.133-.171-1.524-.515-.402-.356-.603-.82-.603-1.395 0-.57.205-1.02.615-1.347.41-.325.996-.51 1.758-.557l1.728-.1v-.55c0-.703-.435-1.055-1.306-1.055-.738 0-1.182.236-1.33.709h-1.219c.063-.547.332-.985.809-1.313.472-.324 1.072-.486 1.798-.486.797 0 1.415.19 1.852.569.434.374.65.9.65 1.576V25h-1.212v-.896h-.1c-.399.668-1.037 1.002-1.916 1.002zm4.821-6.486h1.213v.979h.094c.09-.317.295-.576.615-.78a2.015 2.015 0 011.102-.304c.238 0 .424.017.556.052v1.243c-.144-.051-.377-.077-.697-.077-.476 0-.865.14-1.166.416-.305.278-.457.64-.457 1.084V25h-1.26v-6.38zm8.484 0h1.488l-2.625 2.736L643.007 25h-1.547l-2.191-2.813-.557.528V25h-1.26v-8.871h1.26v5.15h.1l2.531-2.66zM649.339 25v-7.26h-2.66v-1.195h6.627v1.195h-2.654V25h-1.313zm5.291-8.871h1.248v3.515h.099c.157-.359.41-.638.762-.837.352-.203.768-.305 1.248-.305.719 0 1.274.207 1.664.621.395.414.592 1 .592 1.758V25h-1.26v-3.809c0-1.023-.474-1.535-1.424-1.535-.511 0-.918.149-1.218.446-.301.293-.452.683-.452 1.171V25h-1.259v-8.871zm9.813 3.44c-.464 0-.847.15-1.148.45-.301.301-.469.702-.504 1.202h3.223c-.016-.504-.164-.905-.446-1.201-.285-.301-.66-.452-1.125-.452zm2.778 3.708a2.242 2.242 0 01-.944 1.354c-.488.328-1.095.492-1.822.492-.914 0-1.633-.295-2.156-.885-.528-.586-.791-1.388-.791-2.408s.265-1.83.797-2.432c.531-.601 1.246-.902 2.144-.902.887 0 1.584.285 2.092.856.504.57.756 1.357.756 2.36v.44h-4.506v.07c.02.563.182 1.008.486 1.337.305.328.709.492 1.213.492.77 0 1.276-.258 1.518-.774h1.213zm1.388-4.658h1.212v1.026h.094c.297-.766.889-1.149 1.776-1.149.863 0 1.449.383 1.757 1.149h.1a1.9 1.9 0 01.762-.838c.347-.207.74-.31 1.177-.31.645 0 1.147.185 1.506.556.356.37.534.888.534 1.552V25h-1.26v-4.066c0-.856-.412-1.284-1.237-1.284-.402 0-.728.13-.978.387-.246.25-.369.567-.369.95V25h-1.237v-4.19c0-.359-.111-.642-.334-.85-.222-.206-.521-.31-.896-.31-.383 0-.703.14-.961.416-.258.278-.387.622-.387 1.032V25h-1.259v-6.38zm13.106.95c-.465 0-.847.15-1.148.45-.301.301-.469.702-.504 1.202h3.223c-.016-.504-.165-.905-.446-1.201-.285-.301-.66-.452-1.125-.452zm2.778 3.708a2.242 2.242 0 01-.944 1.354c-.488.328-1.095.492-1.822.492-.914 0-1.633-.295-2.156-.885-.528-.586-.791-1.388-.791-2.408s.265-1.83.797-2.432c.531-.601 1.246-.902 2.144-.902.887 0 1.584.285 2.092.856.504.57.756 1.357.756 2.36v.44h-4.506v.07c.019.563.182 1.008.486 1.337.305.328.709.492 1.213.492.77 0 1.275-.258 1.518-.774h1.213zm6.144 3.346c-1.054-1.32-1.582-3.033-1.582-5.139 0-1.89.547-3.535 1.641-4.933h1.108c-.426.496-.774 1.205-1.043 2.127a9.803 9.803 0 00-.411 2.806c0 1.75.479 3.463 1.436 5.139h-1.149zM693.338 25v-8.455h1.535l2.689 6.422h.1l2.695-6.422h1.536V25h-1.219v-6.105h-.082l-2.479 5.859h-.996l-2.478-5.86h-.082V25h-1.219zm12.415-.955c.473 0 .867-.133 1.184-.399.312-.265.468-.597.468-.996v-.533l-1.558.1c-.852.058-1.277.365-1.277.92 0 .281.111.504.334.668.214.16.498.24.849.24zm-.322 1.06c-.625 0-1.133-.171-1.524-.515-.402-.356-.603-.82-.603-1.395 0-.57.205-1.02.615-1.347.41-.325.996-.51 1.758-.557l1.728-.1v-.55c0-.703-.435-1.055-1.306-1.055-.738 0-1.182.236-1.33.709h-1.219c.062-.547.332-.985.809-1.313.472-.324 1.072-.486 1.798-.486.797 0 1.414.19 1.852.569.434.374.65.9.65 1.576V25h-1.213v-.896h-.099c-.399.668-1.037 1.002-1.916 1.002zm8.999-4.4a1.335 1.335 0 00-.492-.773c-.27-.207-.608-.31-1.014-.31-.527 0-.941.19-1.242.573-.305.383-.457.914-.457 1.594 0 .688.152 1.229.457 1.623.301.39.715.586 1.242.586.836 0 1.338-.35 1.506-1.049h1.225c-.082.656-.36 1.18-.832 1.57-.489.403-1.119.604-1.893.604-.93 0-1.66-.295-2.191-.885-.535-.593-.803-1.41-.803-2.449 0-1.023.266-1.828.797-2.414.531-.586 1.262-.879 2.191-.879.778 0 1.412.21 1.905.627.464.395.74.922.826 1.582h-1.225zm6.216-4.365c1.219 0 2.18.398 2.883 1.195.703.793 1.055 1.871 1.055 3.235 0 1.363-.35 2.44-1.049 3.234-.707.8-1.67 1.201-2.889 1.201-1.223 0-2.187-.398-2.894-1.195-.704-.793-1.055-1.873-1.055-3.24 0-1.364.355-2.444 1.066-3.24.707-.794 1.668-1.19 2.883-1.19zm0 1.224c-.797 0-1.43.29-1.898.868-.473.578-.709 1.357-.709 2.338 0 .98.232 1.76.697 2.337.465.582 1.101.873 1.91.873.801 0 1.434-.29 1.899-.873.464-.578.697-1.357.697-2.337 0-.985-.233-1.764-.697-2.338-.465-.578-1.098-.867-1.899-.867zm6.415 5.163c.055.402.266.72.633.955.363.238.828.357 1.395.357.527 0 .965-.123 1.312-.37.344-.241.516-.55.516-.925a.97.97 0 00-.387-.79c-.254-.204-.662-.372-1.225-.505l-1.089-.264c-.766-.18-1.329-.458-1.688-.837-.359-.38-.539-.88-.539-1.5 0-.754.281-1.36.844-1.817.566-.46 1.31-.691 2.232-.691.86 0 1.572.226 2.139.68.566.453.869 1.035.908 1.746h-1.277c-.063-.391-.252-.7-.569-.926-.32-.227-.726-.34-1.218-.34-.52 0-.938.115-1.254.346-.317.23-.475.535-.475.914 0 .3.121.545.363.732.239.188.633.346 1.184.475l.932.228c.867.203 1.492.49 1.875.862.382.375.574.88.574 1.517 0 .809-.293 1.45-.879 1.922-.586.473-1.379.71-2.379.71-.937 0-1.697-.226-2.279-.675-.586-.449-.903-1.05-.949-1.804h1.3zM736.857 25v-8.455h1.535l2.689 6.422h.1l2.695-6.422h1.535V25h-1.218v-6.105h-.082l-2.479 5.859h-.996l-2.479-5.86h-.082V25h-1.218zm13.024-.996c.543 0 .965-.194 1.266-.58.297-.383.445-.922.445-1.617 0-.692-.148-1.23-.445-1.617-.301-.383-.723-.575-1.266-.575-.547 0-.969.192-1.265.575-.297.382-.446.921-.446 1.617 0 .699.149 1.24.446 1.623.296.383.718.574 1.265.574zm0 1.119c-.937 0-1.674-.295-2.209-.885-.535-.59-.802-1.4-.802-2.431 0-1.028.269-1.836.808-2.426.535-.59 1.27-.885 2.203-.885.93 0 1.662.295 2.198.885.539.59.808 1.398.808 2.426 0 1.03-.267 1.841-.803 2.431-.535.59-1.269.885-2.203.885zm5.607.229c0 1.277-.686 1.916-2.057 1.916-.168 0-.261-.002-.281-.006v-1.055h.176c.332 0 .568-.068.709-.205.133-.129.199-.35.199-.662v-6.72h1.254v6.732zm-.627-7.852a.797.797 0 01-.58-.223.712.712 0 01-.235-.545c0-.218.079-.402.235-.55a.797.797 0 01.58-.223c.234 0 .43.074.586.223a.74.74 0 01.228.55.72.72 0 01-.228.545.817.817 0 01-.586.223zm4.359 6.545c.472 0 .867-.133 1.183-.399.313-.265.469-.597.469-.996v-.533l-1.559.1c-.851.058-1.277.365-1.277.92 0 .281.111.504.334.668.215.16.498.24.85.24zm-.323 1.06c-.625 0-1.133-.171-1.523-.515-.403-.356-.604-.82-.604-1.395 0-.57.205-1.02.616-1.347.41-.325.996-.51 1.757-.557l1.729-.1v-.55c0-.703-.436-1.055-1.307-1.055-.738 0-1.181.236-1.33.709h-1.219c.063-.547.332-.985.809-1.313.473-.324 1.072-.486 1.799-.486.797 0 1.414.19 1.851.569.434.374.651.9.651 1.576V25h-1.213v-.896h-.1c-.398.668-1.037 1.002-1.916 1.002zm5.408-6.486l1.588 5.033h.099l1.582-5.033h1.336L766.613 25h-1.353l-2.303-6.38h1.348zm8.056.95c-.465 0-.848.15-1.149.45-.301.301-.469.702-.504 1.202h3.223c-.016-.504-.164-.905-.445-1.201-.286-.301-.661-.452-1.125-.452zm2.777 3.708a2.244 2.244 0 01-.943 1.354c-.489.328-1.096.492-1.823.492-.914 0-1.633-.295-2.156-.885-.527-.586-.791-1.388-.791-2.408s.266-1.83.797-2.432c.531-.601 1.246-.902 2.144-.902.887 0 1.584.285 2.092.856.504.57.756 1.357.756 2.36v.44h-4.506v.07c.02.563.182 1.008.487 1.337.304.328.709.492 1.212.492.77 0 1.276-.258 1.518-.774h1.213zm1.153 3.346c.957-1.676 1.436-3.389 1.436-5.139 0-.953-.137-1.89-.41-2.812-.27-.922-.617-1.629-1.043-2.121h1.119c1.09 1.394 1.635 3.039 1.635 4.933 0 2.094-.528 3.807-1.582 5.139h-1.155zM505 19h8v6h-8zM506 18v1h1v-1a2 2 0 114 0v1h1v-1a3 3 0 10-6 0z"/>
  <path fill="#DADADA" d="M924.5 15v1a4.5 4.5 0 104.5 4.5h1a5.5 5.5 0 11-5.5-5.5z"/>
  <path fill="#DADADA" d="M928 15.5l-4 2.5v-5l4 2.5z"/>
  <g filter="url(#filter3_i)">
    <rect width="37" height="22" x="140" y="9" fill="url(#paint5_linear)" rx="3"/>
  </g>
  <path fill="#BBBEC0" fill-rule="evenodd" d="M153 17v-1h2.013v1H153zm0 2v-1h2.05v1H153zm0 1v1h2.05v-1H153z" clip-rule="evenodd"/>
  <path fill="#E9E9EA" fill-rule="evenodd" d="M157 14h7.993c.558 0 1.007.449 1.007 1.002v9.995A1.01 1.01 0 01164.993 26h-12.986A1.004 1.004 0 01151 24.997v-9.995A1.01 1.01 0 01152.007 14H157zm-1 1h-3.993L152 24.997c0 .001 1.768.002 4 .002V15zM157 25v-9.998c3.663 0 8 0 8 .002L164.993 25 157 24.999z" clip-rule="evenodd"/>
  <path fill="#53C22B" fill-rule="evenodd" d="M60 26a6 6 0 100-12 6 6 0 000 12z" clip-rule="evenodd"/>
  <path fill="#E6C02A" fill-rule="evenodd" d="M40 26a6 6 0 100-12 6 6 0 000 12z" clip-rule="evenodd"/>
  <path fill="#FF5A52" fill-rule="evenodd" d="M20 26a6 6 0 100-12 6 6 0 000 12z" clip-rule="evenodd"/>
  <g filter="url(#filter4_i)">
    <rect width="25" height="22" x="105" y="9" fill="url(#paint6_linear)" rx="3"/>
  </g>
  <path fill="#75787A" d="M114.616 23.984a.942.942 0 001.366 1.298l4.967-5.228a.077.077 0 000-.108l-4.967-5.228a.943.943 0 00-1.366 1.298L118.402 20l-3.786 3.984z"/>
  <g filter="url(#filter5_i)">
    <path fill="url(#paint7_linear)" d="M79 13.8c0-1.68 0-2.52.327-3.162a3 3 0 011.311-1.311C81.28 9 82.12 9 83.8 9h15.4c1.68 0 2.52 0 3.162.327a3.004 3.004 0 011.311 1.311c.327.642.327 1.482.327 3.162v12.4c0 1.68 0 2.52-.327 3.162a3.004 3.004 0 01-1.311 1.311C101.72 31 100.88 31 99.2 31H83.8c-1.68 0-2.52 0-3.162-.327a3 3 0 01-1.311-1.311C79 28.72 79 27.88 79 26.2V13.8z"/>
  </g>
  <path fill="#E9E9EA" d="M94.384 23.984a.942.942 0 01-1.365 1.298l-4.968-5.228a.078.078 0 010-.108l4.968-5.228a.942.942 0 111.365 1.298L90.598 20l3.786 3.984z"/>
  <rect width="1281" height="759" x=".5" y=".5" stroke="url(#paint8_linear)" rx="5.5"/>
  <rect width="1279" height="757" x="1.5" y="1.5" stroke="url(#paint9_linear)" rx="4.5"/>
  <path fill="#333" d="M1 38h1v1H1zM1280 38h1v1h-1z"/>
  <path fill="#757779" d="M1280 13h1v1h-1z"/>
  <path fill="url(#paint10_linear)" d="M1280 14h1v24h-1z"/>
  <path fill="#fff" d="M454.394 370.281c.219 1.768 1.139 3.172 2.761 4.211 1.623 1.057 3.683 1.586 6.18 1.586 2.333 0 4.248-.538 5.742-1.613 1.513-1.057 2.27-2.416 2.27-4.074 0-1.422-.574-2.58-1.723-3.473-1.13-.893-2.962-1.632-5.496-2.215l-5.113-1.176c-7.018-1.586-10.527-5.268-10.527-11.047 0-3.591 1.339-6.471 4.019-8.64 2.698-2.188 6.253-3.281 10.664-3.281 4.138 0 7.565 1.075 10.281 3.226s4.157 4.922 4.321 8.313h-6.754c-.237-1.732-1.067-3.108-2.489-4.129-1.421-1.021-3.217-1.531-5.386-1.531-2.279 0-4.102.501-5.469 1.503-1.385 1.021-2.078 2.37-2.078 4.047 0 1.331.538 2.407 1.613 3.227 1.076.838 2.835 1.54 5.278 2.105l4.539 1.039c3.992.894 6.89 2.224 8.695 3.993 1.786 1.768 2.68 4.156 2.68 7.164 0 3.846-1.386 6.881-4.157 9.105-2.789 2.242-6.571 3.363-11.347 3.363-4.521 0-8.176-1.057-10.965-3.172-2.771-2.114-4.248-4.958-4.43-8.531h6.891zm40.979 5.879c2.042 0 3.747-.583 5.114-1.75 1.367-1.185 2.051-2.643 2.051-4.375v-2.379l-6.754.438c-3.719.237-5.579 1.586-5.579 4.047 0 1.239.484 2.224 1.45 2.953.948.711 2.187 1.066 3.718 1.066zm-1.996 5.332c-2.916 0-5.286-.811-7.109-2.433-1.859-1.659-2.789-3.838-2.789-6.536 0-2.697.984-4.812 2.953-6.343 1.951-1.532 4.749-2.407 8.395-2.625l7.711-.465v-2.516c0-3.044-1.878-4.566-5.633-4.566-3.282 0-5.241 1.039-5.879 3.117h-6.399c.274-2.643 1.559-4.74 3.856-6.289 2.278-1.568 5.195-2.352 8.75-2.352 3.828 0 6.79.884 8.887 2.653 2.078 1.768 3.117 4.247 3.117 7.437V381h-6.535v-4.102h-.465c-1.769 3.063-4.722 4.594-8.86 4.594zm25.996-24.801h-4.868v-5.414h4.868v-2.98c0-2.99.802-5.168 2.406-6.535 1.549-1.331 3.983-1.996 7.301-1.996 1.13 0 2.324.1 3.582.3v5.059c-.638-.146-1.504-.219-2.598-.219-2.698 0-4.047 1.276-4.047 3.828v2.543h6.481v5.414h-6.371V381h-6.754v-24.309zm28.866 19.469c2.042 0 3.746-.583 5.113-1.75 1.368-1.185 2.051-2.643 2.051-4.375v-2.379l-6.754.438c-3.719.237-5.578 1.586-5.578 4.047 0 1.239.483 2.224 1.449 2.953.948.711 2.188 1.066 3.719 1.066zm-1.996 5.332c-2.917 0-5.286-.811-7.109-2.433-1.86-1.659-2.789-3.838-2.789-6.536 0-2.697.984-4.812 2.953-6.343 1.95-1.532 4.748-2.407 8.394-2.625l7.711-.465v-2.516c0-3.044-1.877-4.566-5.633-4.566-3.281 0-5.241 1.039-5.879 3.117h-6.398c.273-2.643 1.559-4.74 3.855-6.289 2.279-1.568 5.196-2.352 8.75-2.352 3.829 0 6.791.884 8.887 2.653 2.078 1.768 3.117 4.247 3.117 7.437V381h-6.535v-4.102h-.465c-1.768 3.063-4.721 4.594-8.859 4.594zm23.835-30.406h6.535v4.648h.465c.419-1.494 1.349-2.725 2.789-3.691 1.477-.966 3.163-1.449 5.059-1.449 1.166 0 2.096.1 2.789.301v6.289c-.693-.256-1.841-.383-3.445-.383-2.188 0-3.965.629-5.332 1.887-1.386 1.276-2.079 2.953-2.079 5.031V381h-6.781v-29.914zm23.234 0h6.754V381h-6.754v-29.914zm3.363-4.867c-1.221 0-2.224-.356-3.008-1.067-.784-.692-1.176-1.586-1.176-2.679 0-1.094.392-1.987 1.176-2.68.784-.711 1.787-1.066 3.008-1.066 1.24 0 2.251.355 3.035 1.066.766.693 1.149 1.586 1.149 2.68 0 1.093-.383 1.987-1.149 2.679-.784.711-1.795 1.067-3.035 1.067zM623.728 381v-39.457h8.258l11.867 28.738h.492l11.867-28.738h8.258V381h-6.562v-27.754h-.383l-10.91 26.223h-5.031l-10.911-26.223h-.382V381h-6.563zm62.472-5.086c2.37 0 4.193-.866 5.469-2.598 1.294-1.713 1.941-4.138 1.941-7.273 0-3.117-.647-5.542-1.941-7.273-1.295-1.732-3.117-2.598-5.469-2.598-2.37 0-4.202.866-5.496 2.598-1.294 1.731-1.942 4.156-1.942 7.273 0 3.135.648 5.56 1.942 7.273 1.294 1.732 3.126 2.598 5.496 2.598zm0 5.688c-4.484 0-8.003-1.377-10.555-4.129-2.552-2.771-3.828-6.581-3.828-11.43 0-4.813 1.285-8.613 3.856-11.402 2.57-2.771 6.079-4.157 10.527-4.157 4.466 0 7.975 1.386 10.527 4.157 2.571 2.77 3.856 6.571 3.856 11.402 0 4.849-1.276 8.659-3.828 11.43-2.571 2.752-6.089 4.129-10.555 4.129zm40.405-20.454c-.328-1.513-1.039-2.707-2.132-3.582-1.167-.929-2.653-1.394-4.457-1.394-2.334 0-4.148.857-5.442 2.57-1.312 1.714-1.969 4.12-1.969 7.219 0 3.135.657 5.578 1.969 7.328 1.313 1.75 3.127 2.625 5.442 2.625 3.664 0 5.86-1.595 6.589-4.785h6.454c-.383 3.19-1.696 5.715-3.938 7.574-2.333 1.932-5.359 2.899-9.078 2.899-4.503 0-8.012-1.377-10.527-4.129-2.516-2.753-3.774-6.59-3.774-11.512 0-4.867 1.258-8.659 3.774-11.375 2.515-2.734 6.015-4.102 10.5-4.102 3.755 0 6.799.994 9.132 2.981 2.243 1.896 3.546 4.457 3.911 7.683h-6.454zm31.3-10.062h7.875l-11.921 12.824L766.601 381h-8.203l-9.598-12.824-2.406 2.406V381h-6.782v-41.48h6.782v23.761h.465l11.046-12.195zM798.284 381h-6.536v-4.758h-.464c-1.513 3.573-4.603 5.36-9.27 5.36-3.318 0-5.915-.976-7.793-2.926-1.914-1.969-2.871-4.712-2.871-8.231v-19.359h6.781v17.746c0 4.539 2.078 6.809 6.235 6.809 2.187 0 3.928-.638 5.222-1.914 1.276-1.276 1.914-3.017 1.914-5.223v-17.418h6.782V381zm24.436-30.406c3.792 0 6.791 1.376 8.996 4.129 2.224 2.752 3.336 6.526 3.336 11.32 0 4.776-1.093 8.54-3.281 11.293-2.206 2.771-5.195 4.156-8.969 4.156-4.466 0-7.51-1.677-9.132-5.031h-.465v14.109h-6.782v-39.484h6.536v4.949h.464a9.534 9.534 0 013.747-3.992c1.658-.966 3.509-1.449 5.55-1.449zm-2.132 25.129c2.351 0 4.192-.857 5.523-2.571 1.312-1.713 1.969-4.083 1.969-7.109s-.666-5.396-1.996-7.109c-1.313-1.714-3.136-2.571-5.469-2.571-2.315 0-4.147.866-5.496 2.598-1.349 1.732-2.033 4.092-2.051 7.082.018 2.99.702 5.35 2.051 7.082 1.331 1.732 3.153 2.598 5.469 2.598zM479.328 426v-16.91h3.07l5.379 12.844h.2l5.39-12.844h3.071V426H494v-12.211h-.164l-4.957 11.719h-1.992l-4.957-11.719h-.164V426h-2.438zm25.031-1.91c.945 0 1.734-.266 2.367-.797.625-.531.937-1.195.937-1.992v-1.067l-3.117.2c-1.703.117-2.555.73-2.555 1.839 0 .563.223 1.008.668 1.336.43.321.996.481 1.7.481zm-.645 2.121c-1.25 0-2.266-.344-3.047-1.031-.805-.711-1.207-1.641-1.207-2.789 0-1.141.41-2.039 1.231-2.696.82-.648 1.992-1.019 3.515-1.113l3.457-.199v-1.102c0-1.406-.871-2.109-2.613-2.109-1.477 0-2.363.473-2.66 1.418h-2.438c.125-1.094.664-1.969 1.618-2.625.945-.649 2.144-.973 3.597-.973 1.594 0 2.828.379 3.703 1.137.867.75 1.301 1.801 1.301 3.152V426h-2.426v-1.793h-.199c-.797 1.336-2.074 2.004-3.832 2.004zm18.198-8.801c-.156-.648-.484-1.164-.984-1.547-.539-.414-1.215-.621-2.027-.621-1.055 0-1.883.383-2.485 1.149-.609.765-.914 1.828-.914 3.187 0 1.375.305 2.457.914 3.246.602.781 1.43 1.172 2.485 1.172 1.672 0 2.676-.699 3.011-2.098h2.45c-.164 1.313-.719 2.36-1.664 3.141-.977.805-2.239 1.207-3.786 1.207-1.859 0-3.32-.59-4.382-1.769-1.071-1.188-1.606-2.821-1.606-4.899 0-2.047.531-3.656 1.594-4.828 1.062-1.172 2.523-1.758 4.383-1.758 1.554 0 2.824.418 3.808 1.254.93.789 1.481 1.844 1.653 3.164h-2.45zm12.633-8.73c2.437 0 4.359.797 5.765 2.39 1.406 1.586 2.11 3.742 2.11 6.469 0 2.727-.7 4.883-2.098 6.469-1.414 1.601-3.34 2.402-5.777 2.402-2.446 0-4.375-.797-5.79-2.39-1.406-1.586-2.109-3.747-2.109-6.481 0-2.727.711-4.887 2.133-6.48 1.414-1.586 3.336-2.379 5.766-2.379zm0 2.449c-1.594 0-2.86.578-3.797 1.734-.946 1.157-1.418 2.715-1.418 4.676 0 1.961.465 3.52 1.394 4.676.93 1.164 2.203 1.746 3.821 1.746 1.601 0 2.867-.582 3.796-1.746.93-1.156 1.395-2.715 1.395-4.676 0-1.969-.465-3.527-1.395-4.676-.929-1.156-2.195-1.734-3.796-1.734zm13.03 10.324c.109.805.531 1.442 1.266 1.91.726.477 1.656.715 2.789.715 1.054 0 1.929-.246 2.625-.738.687-.485 1.031-1.102 1.031-1.852 0-.64-.258-1.168-.774-1.582-.507-.406-1.324-.742-2.449-1.008l-2.179-.527c-1.532-.359-2.657-.918-3.375-1.676-.719-.757-1.079-1.757-1.079-3 0-1.507.563-2.718 1.688-3.633 1.133-.921 2.621-1.382 4.465-1.382 1.719 0 3.144.453 4.277 1.359 1.133.906 1.738 2.07 1.817 3.492h-2.555c-.125-.781-.504-1.398-1.137-1.851-.64-.453-1.453-.68-2.437-.68-1.039 0-1.875.23-2.508.691-.633.461-.949 1.071-.949 1.829 0 .601.242 1.089.726 1.464.477.375 1.266.692 2.367.95l1.864.457c1.734.406 2.984.98 3.75 1.722.765.75 1.148 1.762 1.148 3.035 0 1.618-.586 2.899-1.758 3.844-1.172.946-2.758 1.418-4.758 1.418-1.875 0-3.394-.449-4.558-1.348-1.172-.898-1.805-2.101-1.899-3.609h2.602zM567.566 426v-16.91h3.07l5.379 12.844h.199l5.391-12.844h3.07V426h-2.437v-12.211h-.165l-4.957 11.719h-1.992l-4.957-11.719h-.164V426h-2.437zm26.249-1.992c1.086 0 1.93-.387 2.531-1.16.594-.766.891-1.844.891-3.235 0-1.383-.297-2.461-.891-3.234-.601-.766-1.445-1.149-2.531-1.149-1.094 0-1.938.383-2.531 1.149-.594.766-.891 1.844-.891 3.234 0 1.399.297 2.481.891 3.246.593.766 1.437 1.149 2.531 1.149zm0 2.238c-1.875 0-3.348-.59-4.418-1.769-1.07-1.18-1.606-2.801-1.606-4.864 0-2.054.539-3.672 1.618-4.851 1.07-1.18 2.539-1.77 4.406-1.77 1.859 0 3.324.59 4.394 1.77 1.078 1.179 1.618 2.797 1.618 4.851 0 2.063-.536 3.684-1.606 4.864-1.07 1.179-2.539 1.769-4.406 1.769zm11.413.457c0 2.555-1.371 3.832-4.113 3.832a6.23 6.23 0 01-.563-.012v-2.109h.352c.664 0 1.137-.137 1.418-.41.266-.258.398-.699.398-1.324v-13.442h2.508v13.465zM603.974 411c-.469 0-.855-.148-1.16-.445a1.425 1.425 0 01-.469-1.09c0-.438.157-.805.469-1.102.305-.297.691-.445 1.16-.445s.86.148 1.172.445c.305.297.457.664.457 1.102 0 .437-.152.801-.457 1.09-.312.297-.703.445-1.172.445zm8.917 13.09c.946 0 1.735-.266 2.368-.797.625-.531.937-1.195.937-1.992v-1.067l-3.117.2c-1.703.117-2.555.73-2.555 1.839 0 .563.223 1.008.668 1.336.43.321.996.481 1.699.481zm-.644 2.121c-1.25 0-2.266-.344-3.047-1.031-.805-.711-1.207-1.641-1.207-2.789 0-1.141.41-2.039 1.23-2.696.821-.648 1.993-1.019 3.516-1.113l3.457-.199v-1.102c0-1.406-.871-2.109-2.613-2.109-1.477 0-2.363.473-2.66 1.418h-2.438c.125-1.094.664-1.969 1.617-2.625.946-.649 2.145-.973 3.598-.973 1.594 0 2.828.379 3.703 1.137.867.75 1.301 1.801 1.301 3.152V426h-2.426v-1.793h-.199c-.797 1.336-2.074 2.004-3.832 2.004zm11.015-12.973l3.176 10.067h.199l3.164-10.067h2.672L627.879 426h-2.707l-4.606-12.762h2.696zm16.311 1.899c-.929 0-1.695.301-2.296.902-.602.602-.938 1.402-1.008 2.402h6.445c-.031-1.007-.328-1.808-.891-2.402-.57-.601-1.32-.902-2.25-.902zm5.555 7.418c-.289 1.148-.918 2.05-1.887 2.707-.976.656-2.191.984-3.644.984-1.828 0-3.266-.59-4.313-1.769-1.054-1.172-1.582-2.778-1.582-4.817s.532-3.66 1.594-4.863c1.063-1.203 2.492-1.805 4.289-1.805 1.774 0 3.168.57 4.184 1.711 1.008 1.141 1.511 2.715 1.511 4.723v.879h-9.011v.14c.039 1.125.363 2.016.972 2.672.61.656 1.418.985 2.426.985 1.539 0 2.551-.516 3.035-1.547h2.426zm8.143 7.066l5.039-20.531h2.297l-5.086 20.531h-2.25zm22.358-20.531c2.508 0 4.461.734 5.859 2.203 1.399 1.477 2.098 3.543 2.098 6.199 0 2.703-.695 4.797-2.086 6.281-1.391 1.485-3.348 2.227-5.871 2.227h-6.106v-16.91h6.106zm-3.481 14.519h3.188c1.773 0 3.144-.527 4.113-1.582.977-1.062 1.465-2.562 1.465-4.5 0-1.906-.492-3.39-1.476-4.453-.977-1.062-2.344-1.594-4.102-1.594h-3.188v12.129zm18.609.481c.945 0 1.734-.266 2.367-.797.625-.531.938-1.195.938-1.992v-1.067l-3.117.2c-1.704.117-2.555.73-2.555 1.839 0 .563.223 1.008.668 1.336.43.321.996.481 1.699.481zm-.644 2.121c-1.25 0-2.266-.344-3.047-1.031-.805-.711-1.207-1.641-1.207-2.789 0-1.141.41-2.039 1.23-2.696.82-.648 1.992-1.019 3.516-1.113l3.457-.199v-1.102c0-1.406-.871-2.109-2.614-2.109-1.476 0-2.363.473-2.66 1.418h-2.437c.125-1.094.664-1.969 1.617-2.625.945-.649 2.145-.973 3.598-.973 1.593 0 2.828.379 3.703 1.137.867.75 1.301 1.801 1.301 3.152V426h-2.426v-1.793h-.199c-.797 1.336-2.075 2.004-3.832 2.004zm9.842-12.973h2.426v1.957h.188c.179-.633.59-1.152 1.23-1.558.641-.407 1.375-.61 2.203-.61.477 0 .848.035 1.114.106v2.484c-.289-.101-.754-.152-1.395-.152-.953 0-1.73.277-2.332.832-.609.555-.914 1.277-.914 2.168V426h-2.52v-12.762zm17.168 0h2.976l-5.25 5.473 5.602 7.289h-3.094l-4.383-5.625-1.113 1.055V426h-2.52v-17.742h2.52v10.301h.199l5.063-5.321zM733.516 426v-14.52h-5.321v-2.39h13.254v2.39h-5.308V426h-2.625zm10.78-17.742h2.496v7.031h.199a3.49 3.49 0 011.524-1.676c.703-.406 1.535-.609 2.496-.609 1.437 0 2.547.414 3.328 1.242.789.828 1.184 2 1.184 3.516V426h-2.52v-7.617c0-2.047-.949-3.071-2.848-3.071-1.023 0-1.835.297-2.437.891-.602.586-.902 1.367-.902 2.344V426h-2.52v-17.742zm19.827 6.879c-.929 0-1.695.301-2.296.902-.602.602-.938 1.402-1.008 2.402h6.445c-.031-1.007-.328-1.808-.891-2.402-.57-.601-1.32-.902-2.25-.902zm5.555 7.418c-.289 1.148-.918 2.05-1.887 2.707-.976.656-2.191.984-3.644.984-1.828 0-3.266-.59-4.313-1.769-1.054-1.172-1.582-2.778-1.582-4.817s.532-3.66 1.594-4.863c1.063-1.203 2.492-1.805 4.289-1.805 1.774 0 3.168.57 4.184 1.711 1.008 1.141 1.511 2.715 1.511 4.723v.879h-9.011v.14c.039 1.125.363 2.016.972 2.672.61.656 1.418.985 2.426.985 1.539 0 2.551-.516 3.035-1.547h2.426zm2.976-9.317h2.426v2.051h.187c.594-1.531 1.778-2.297 3.551-2.297 1.727 0 2.898.766 3.516 2.297h.199a3.802 3.802 0 011.523-1.676c.696-.414 1.481-.621 2.356-.621 1.289 0 2.293.371 3.011 1.113.711.743 1.067 1.778 1.067 3.106V426h-2.52v-8.133c0-1.711-.824-2.566-2.472-2.566-.805 0-1.457.258-1.957.773-.493.5-.739 1.133-.739 1.899V426h-2.472v-8.379c0-.719-.223-1.285-.668-1.699-.446-.414-1.043-.621-1.793-.621-.766 0-1.407.277-1.922.832-.516.555-.774 1.242-.774 2.062V426h-2.519v-12.762zm26.413 1.899c-.929 0-1.695.301-2.297.902-.601.602-.937 1.402-1.007 2.402h6.445c-.031-1.007-.328-1.808-.891-2.402-.57-.601-1.32-.902-2.25-.902zm5.555 7.418c-.289 1.148-.918 2.05-1.887 2.707-.976.656-2.191.984-3.644.984-1.828 0-3.266-.59-4.313-1.769-1.055-1.172-1.582-2.778-1.582-4.817s.531-3.66 1.594-4.863c1.062-1.203 2.492-1.805 4.289-1.805 1.773 0 3.168.57 4.184 1.711 1.007 1.141 1.511 2.715 1.511 4.723v.879h-9.011v.14c.039 1.125.363 2.016.972 2.672.61.656 1.418.985 2.426.985 1.539 0 2.551-.516 3.035-1.547h2.426z"/>
  <defs>
    <linearGradient id="paint0_linear" x1="641.5" x2="641.5" y1="1" y2="38" gradientUnits="userSpaceOnUse">
      <stop stop-color="#3A3E3F"/>
      <stop offset="1" stop-color="#2F3234"/>
    </linearGradient>
    <linearGradient id="paint1_linear" x1="1256" x2="1256" y1="13" y2="38" gradientUnits="userSpaceOnUse">
      <stop stop-color="#28292A"/>
      <stop offset="1" stop-color="#252526"/>
    </linearGradient>
    <linearGradient id="paint2_linear" x1="1211" x2="1211" y1="9" y2="31" gradientUnits="userSpaceOnUse">
      <stop stop-color="#65686A"/>
      <stop offset="1" stop-color="#5F6263"/>
    </linearGradient>
    <linearGradient id="paint3_linear" x1="1166" x2="1166" y1="9" y2="31" gradientUnits="userSpaceOnUse">
      <stop stop-color="#65686A"/>
      <stop offset="1" stop-color="#5F6263"/>
    </linearGradient>
    <linearGradient id="paint4_linear" x1="347" x2="347" y1="9" y2="31" gradientUnits="userSpaceOnUse">
      <stop stop-color="#65686A"/>
      <stop offset="1" stop-color="#5F6263"/>
    </linearGradient>
    <linearGradient id="paint5_linear" x1="140" x2="140" y1="9" y2="31" gradientUnits="userSpaceOnUse">
      <stop stop-color="#65686A"/>
      <stop offset="1" stop-color="#5F6263"/>
    </linearGradient>
    <linearGradient id="paint6_linear" x1="105" x2="105" y1="9" y2="31" gradientUnits="userSpaceOnUse">
      <stop stop-color="#65686A"/>
      <stop offset="1" stop-color="#5F6263"/>
    </linearGradient>
    <linearGradient id="paint7_linear" x1="79" x2="79" y1="9" y2="31" gradientUnits="userSpaceOnUse">
      <stop stop-color="#65686A"/>
      <stop offset="1" stop-color="#5F6263"/>
    </linearGradient>
    <linearGradient id="paint8_linear" x1="641" x2="641" y1="-.001" y2="760.001" gradientUnits="userSpaceOnUse">
      <stop stop-color="#141414"/>
    </linearGradient>
    <linearGradient id="paint9_linear" x1="641" x2="641" y1="1" y2="759" gradientUnits="userSpaceOnUse">
      <stop stop-color="#808383"/>
      <stop offset="1" stop-color="#585B5D"/>
    </linearGradient>
    <linearGradient id="paint10_linear" x1="1280.5" x2="1280.5" y1="14" y2="38" gradientUnits="userSpaceOnUse">
      <stop stop-color="#525354"/>
      <stop offset="1" stop-color="#4E4F50"/>
    </linearGradient>
    <filter id="filter0_i" width="37" height="22" x="1211" y="9" color-interpolation-filters="sRGB" filterUnits="userSpaceOnUse">
      <feFlood flood-opacity="0" result="BackgroundImageFix"/>
      <feBlend in="SourceGraphic" in2="BackgroundImageFix" result="shape"/>
      <feColorMatrix in="SourceAlpha" result="hardAlpha" values="0 0 0 0 0 0 0 0 0 0 0 0 0 0 0 0 0 0 127 0"/>
      <feOffset dy="1"/>
      <feComposite in2="hardAlpha" k2="-1" k3="1" operator="arithmetic"/>
      <feColorMatrix values="0 0 0 0 0.458824 0 0 0 0 0.470588 0 0 0 0 0.478431 0 0 0 1 0"/>
      <feBlend in2="shape" result="effect1_innerShadow"/>
    </filter>
    <filter id="filter1_i" width="37" height="22" x="1166" y="9" color-interpolation-filters="sRGB" filterUnits="userSpaceOnUse">
      <feFlood flood-opacity="0" result="BackgroundImageFix"/>
      <feBlend in="SourceGraphic" in2="BackgroundImageFix" result="shape"/>
      <feColorMatrix in="SourceAlpha" result="hardAlpha" values="0 0 0 0 0 0 0 0 0 0 0 0 0 0 0 0 0 0 127 0"/>
      <feOffset dy="1"/>
      <feComposite in2="hardAlpha" k2="-1" k3="1" operator="arithmetic"/>
      <feColorMatrix values="0 0 0 0 0.458824 0 0 0 0 0.470588 0 0 0 0 0.478431 0 0 0 1 0"/>
      <feBlend in2="shape" result="effect1_innerShadow"/>
    </filter>
    <filter id="filter2_i" width="590" height="22" x="347" y="9" color-interpolation-filters="sRGB" filterUnits="userSpaceOnUse">
      <feFlood flood-opacity="0" result="BackgroundImageFix"/>
      <feBlend in="SourceGraphic" in2="BackgroundImageFix" result="shape"/>
      <feColorMatrix in="SourceAlpha" result="hardAlpha" values="0 0 0 0 0 0 0 0 0 0 0 0 0 0 0 0 0 0 127 0"/>
      <feOffset dy="1"/>
      <feComposite in2="hardAlpha" k2="-1" k3="1" operator="arithmetic"/>
      <feColorMatrix values="0 0 0 0 0.458824 0 0 0 0 0.470588 0 0 0 0 0.478431 0 0 0 1 0"/>
      <feBlend in2="shape" result="effect1_innerShadow"/>
    </filter>
    <filter id="filter3_i" width="37" height="22" x="140" y="9" color-interpolation-filters="sRGB" filterUnits="userSpaceOnUse">
      <feFlood flood-opacity="0" result="BackgroundImageFix"/>
      <feBlend in="SourceGraphic" in2="BackgroundImageFix" result="shape"/>
      <feColorMatrix in="SourceAlpha" result="hardAlpha" values="0 0 0 0 0 0 0 0 0 0 0 0 0 0 0 0 0 0 127 0"/>
      <feOffset dy="1"/>
      <feComposite in2="hardAlpha" k2="-1" k3="1" operator="arithmetic"/>
      <feColorMatrix values="0 0 0 0 0.458824 0 0 0 0 0.470588 0 0 0 0 0.478431 0 0 0 1 0"/>
      <feBlend in2="shape" result="effect1_innerShadow"/>
    </filter>
    <filter id="filter4_i" width="25" height="22" x="105" y="9" color-interpolation-filters="sRGB" filterUnits="userSpaceOnUse">
      <feFlood flood-opacity="0" result="BackgroundImageFix"/>
      <feBlend in="SourceGraphic" in2="BackgroundImageFix" result="shape"/>
      <feColorMatrix in="SourceAlpha" result="hardAlpha" values="0 0 0 0 0 0 0 0 0 0 0 0 0 0 0 0 0 0 127 0"/>
      <feOffset dy="1"/>
      <feComposite in2="hardAlpha" k2="-1" k3="1" operator="arithmetic"/>
      <feColorMatrix values="0 0 0 0 0.458824 0 0 0 0 0.470588 0 0 0 0 0.478431 0 0 0 1 0"/>
      <feBlend in2="shape" result="effect1_innerShadow"/>
    </filter>
    <filter id="filter5_i" width="25" height="22" x="79" y="9" color-interpolation-filters="sRGB" filterUnits="userSpaceOnUse">
      <feFlood flood-opacity="0" result="BackgroundImageFix"/>
      <feBlend in="SourceGraphic" in2="BackgroundImageFix" result="shape"/>
      <feColorMatrix in="SourceAlpha" result="hardAlpha" values="0 0 0 0 0 0 0 0 0 0 0 0 0 0 0 0 0 0 127 0"/>
      <feOffset dy="1"/>
      <feComposite in2="hardAlpha" k2="-1" k3="1" operator="arithmetic"/>
      <feColorMatrix values="0 0 0 0 0.458824 0 0 0 0 0.470588 0 0 0 0 0.478431 0 0 0 1 0"/>
      <feBlend in2="shape" result="effect1_innerShadow"/>
    </filter>
  </defs>
</svg>
